<svg id="Layer_1" height="512" viewBox="0 0 512 512" width="512" xmlns="http://www.w3.org/2000/svg" data-name="Layer 1"><path d="m271 109.753c-4.946-.412-9.947-.633-15-.633-98.63 0-178.58 80.02-178.58 178.73s79.95 178.73 178.58 178.73c5.053 0 10.054-.221 15-.633-91.608-7.626-163.58-84.444-163.58-178.1s71.972-170.468 163.58-178.094z" fill="#d4e1f4"/><path d="m256 103.12c-101.776 0-184.577 82.869-184.577 184.73s82.801 184.729 184.577 184.729 184.577-82.869 184.577-184.729-82.801-184.73-184.577-184.73zm0 357.459c-95.159 0-172.577-77.486-172.577-172.729s77.418-172.73 172.577-172.73 172.577 77.486 172.577 172.73-77.418 172.729-172.577 172.729z" fill="#0635c9"/><path d="m401.306 132.17 19.935-26.808a23.55 23.55 0 1 0 -37.941-27.911l-19.39 26.706a211.338 211.338 0 0 0 -90.91-28.779v-20.378h22.645a6.351 6.351 0 0 0 6.355-6.043v-12.546c0-14.011-11.748-25.411-25.751-25.411h-40.5c-14.001 0-25.749 11.4-25.749 25.411v12.546a6.351 6.351 0 0 0 6.355 6.043h18.645v20.735a211.309 211.309 0 0 0 -85.665 27.683l-19.625-26.4a23.557 23.557 0 1 0 -37.648 28.322l19.659 25.874a212.7 212.7 0 0 0 -68.695 156.636c0 117.531 95.54 213.15 212.974 213.15s212.974-95.619 212.974-213.15a212.675 212.675 0 0 0 -67.668-155.68zm-8.291-47.67a11.55 11.55 0 1 1 18.6 13.7l-19.326 25.988a214.316 214.316 0 0 0 -18.191-13.63zm-171.015-48.089a13.726 13.726 0 0 1 13.751-13.411h40.5a13.726 13.726 0 0 1 13.749 13.411v6.589h-68zm25 18.589h14v19.762c-1.662-.038-3.328-.063-5-.063-3.017 0-6.014.079-9 .2zm-145.383 43.08a11.557 11.557 0 1 1 18.462-13.908l19.025 25.6a214.492 214.492 0 0 0 -18.329 13.528zm154.383 390.92c-110.817 0-200.974-90.236-200.974-201.15s90.157-201.15 200.974-201.15 200.974 90.235 200.974 201.15-90.157 201.15-200.974 201.15z" fill="#0635c9"/><path d="m256 173.757a113.292 113.292 0 0 0 -65.769 20.959 5.995 5.995 0 1 0 6.993 9.739 102.216 102.216 0 1 1 -26.358 27.23 6.02 6.02 0 0 0 -.726-7.589l-.008-.007a5.985 5.985 0 0 0 -9.214.89 113.483 113.483 0 0 0 -18.918 62.871c0 62.91 51.141 114.092 114 114.092s114-51.182 114-114.092-51.141-114.093-114-114.093z" fill="#0635c9"/><g fill="#1ae5be"><path d="m255 163.751a6 6 0 0 0 6-6v-27.951a6 6 0 0 0 -12 0v27.951a6 6 0 0 0 6 6z"/><path d="m257 411.949a6 6 0 0 0 -6 6v27.951a6 6 0 0 0 12 0v-27.951a6 6 0 0 0 -6-6z"/><path d="m261.916 205.165a6.143 6.143 0 0 0 -5.9-5.165h-.016a6.15 6.15 0 0 0 -5.909 5.129l-13.933 79.431a21.729 21.729 0 1 0 38.938-1.52zm-6.024 36.427 5.2 30.692a21.684 21.684 0 0 0 -10.614.1zm.108 61.546a9.732 9.732 0 1 1 9.731-9.732 9.742 9.742 0 0 1 -9.731 9.732z"/><path d="m414.049 281h-27.949a6 6 0 1 0 0 12h27.95a6 6 0 0 0 0-12z"/><path d="m125.9 283h-27.949a6 6 0 0 0 0 12h27.949a6 6 0 0 0 0-12z"/><path d="m347.448 201.311a5.98 5.98 0 0 0 4.242-1.757l19.765-19.765a6 6 0 0 0 -8.484-8.485l-19.765 19.764a6 6 0 0 0 4.242 10.243z"/><path d="m160.309 376.146-19.764 19.764a6 6 0 1 0 8.484 8.485l19.764-19.764a6 6 0 0 0 -8.484-8.485z"/><path d="m352.78 375.055a6 6 0 1 0 -8.484 8.486l19.765 19.764a6 6 0 1 0 8.484-8.486z"/><path d="m159.219 200.643a6 6 0 1 0 8.484-8.485l-19.764-19.764a6 6 0 0 0 -8.484 8.485z"/><path d="m216.334 355.069a78.087 78.087 0 0 1 -27.929-106.156 6 6 0 1 0 -10.392-6 90.084 90.084 0 0 0 32.194 122.472 6 6 0 1 0 6.127-10.318z"/><path d="m194.811 236.293a5.981 5.981 0 0 0 4.374-1.893c1.632-1.737 3.366-3.422 5.154-5.009a6 6 0 1 0 -7.965-8.975c-2.059 1.826-4.056 3.768-5.936 5.77a6 6 0 0 0 4.373 10.107z"/></g></svg>